<svg width="24" height="24" viewBox="0 0 24 24" fill="none" xmlns="http://www.w3.org/2000/svg">
<path fill-rule="evenodd" clip-rule="evenodd" d="M18.1123 7.5411C18.1123 4.18493 15.4171 1.5 12.0481 1.5C8.67914 1.5 5.98396 4.18493 5.98396 7.5411C5.98396 8.69178 6.17647 9.65069 6.94652 10.1301C8.29412 10.8973 10.0267 11.7603 12.0481 12.6233C14.0695 11.7603 15.8021 10.8973 17.1497 10.1301C17.8235 9.65069 18.1123 8.69178 18.1123 7.5411ZM21 10.0342V17.4178C21 17.8014 20.8075 18.1849 20.5187 18.3767L20.4225 18.4726L12.5294 22.5V13.5822L20.2299 9.65068C20.5187 9.4589 21 9.65068 21 10.0342ZM3.86631 9.65069L11.5668 13.5822V22.5L3.6738 18.4726C3.28877 18.2808 3 17.8973 3 17.4178V10.1301C3.09626 9.74658 3.48128 9.4589 3.86631 9.65069ZM9.54545 7.44521C9.16043 7.44521 8.7754 7.73288 8.7754 8.21233C8.7754 8.69178 9.16043 8.88356 9.54545 8.88356C9.93048 8.88356 10.3155 8.59589 10.3155 8.11644C10.3155 7.63699 9.93048 7.44521 9.54545 7.44521ZM13.7807 8.21233C13.7807 7.73288 14.1658 7.44521 14.5508 7.44521C14.9358 7.44521 15.3209 7.73288 15.3209 8.21233C15.3209 8.69178 14.9358 8.97945 14.5508 8.97945C14.0695 8.97945 13.7807 8.69178 13.7807 8.21233Z" fill="#141414"/>
</svg>
