<svg width="24" height="24" viewBox="0 0 24 24" xmlns="http://www.w3.org/2000/svg">
    <g fill="none" fill-rule="evenodd">
        <path d="m21.47 4.35-1.34-.56v9.03l2.43-5.86c.41-1.02-.08-2.19-1.09-2.61zm-19.5 3.7 4.96 11.97c.31.75 1.04 1.21 1.81 1.23.26 0 .53-.04.79-.15l7.37-3.05a1.999 1.999 0 0 0 1.08-2.6L13.02 3.48a1.998 1.998 0 0 0-2.6-1.08L3.06 5.45a1.994 1.994 0 0 0-1.09 2.6zm16.15-3.8c0-1.1-.9-2-2-2h-1.45l3.45 8.34V4.25z" fill="#141414"/>
        <path d="M24 24H0V0h24z"/>
    </g>
</svg>
